<svg data-v-423bf9ae="" xmlns="http://www.w3.org/2000/svg" viewBox="0 0 615 90" class="iconLeft"><!----><!----><!----><g data-v-423bf9ae="" id="0d6cdab9-fe21-4a1b-b75a-86724ed453b6" fill="#000000" transform="matrix(5.395683046021815,0,0,5.395683046021815,103.41725686578388,-1.2949641265828689)"><path d="M11.07 6.58C9.88 6.58 8.79 6.99 7.64 7.85C7.27 7.01 6.50 6.58 5.45 6.58C4.30 6.58 3.25 6.96 2.14 7.76L1.95 6.72L1.22 6.72L1.22 14L2.25 14L2.25 8.62C3.23 7.97 4.28 7.50 5.18 7.50C6.24 7.50 6.87 8.12 6.87 9.30L6.87 14L7.91 14L7.91 9.25C7.91 9.04 7.90 8.83 7.87 8.65C8.85 7.98 9.88 7.50 10.81 7.50C11.89 7.50 12.50 8.13 12.50 9.30L12.50 14L13.54 14L13.54 9.25C13.54 7.50 12.61 6.58 11.07 6.58ZM16.49 5.10C16.93 5.10 17.29 4.73 17.29 4.27C17.29 3.85 16.93 3.50 16.49 3.50C16.04 3.50 15.69 3.85 15.69 4.27C15.69 4.73 16.04 5.10 16.49 5.10ZM16.98 6.72L15.93 6.72L15.93 14L16.98 14ZM23.72 6.58C22.55 6.58 21.49 6.99 20.37 7.78L20.20 6.72L19.45 6.72L19.45 14L20.48 14L20.48 8.65C21.48 7.98 22.54 7.50 23.45 7.50C24.56 7.50 25.19 8.12 25.19 9.30L25.19 14L26.24 14L26.24 9.25C26.24 7.50 25.28 6.58 23.72 6.58ZM34.33 3.08L34.33 7.66C33.68 6.94 32.80 6.58 31.72 6.58C29.68 6.58 28.04 8.20 28.04 10.33C28.04 12.52 29.67 14.14 31.74 14.14C32.93 14.14 33.82 13.69 34.47 12.87L34.66 14L35.34 14L35.34 3.08ZM31.77 13.23C30.34 13.23 29.11 11.97 29.11 10.33C29.11 8.72 30.34 7.49 31.77 7.49C32.97 7.49 33.82 8.11 34.30 9.03L34.30 11.68C33.81 12.63 32.98 13.23 31.77 13.23ZM40.66 3.96C41.13 3.96 41.48 4.06 41.86 4.19L41.97 3.30C41.55 3.14 41.03 3.02 40.50 3.02C39.16 3.02 38.43 3.72 38.43 5.22L38.43 6.72L36.85 6.72L36.85 7.62L38.43 7.62L38.43 14.08L39.48 14.08L39.48 7.62L41.83 7.62L41.83 6.72L39.48 6.72L39.48 5.22C39.48 4.30 39.87 3.96 40.66 3.96ZM48.61 6.72L48.61 12.18C47.67 12.82 46.72 13.22 45.89 13.22C44.80 13.22 44.20 12.60 44.20 11.42L44.20 6.72L43.15 6.72L43.15 11.47C43.15 13.22 44.09 14.14 45.63 14.14C46.70 14.14 47.66 13.78 48.73 13.06L48.92 14L49.66 14L49.66 6.72ZM55.17 6.58C53.13 6.58 51.55 8.19 51.55 10.33C51.55 12.50 53.09 14.14 55.19 14.14C56.85 14.14 58.11 13.06 58.35 11.76L57.36 11.76C57.15 12.66 56.29 13.23 55.19 13.23C53.75 13.23 52.68 12.15 52.57 10.63L58.39 10.63L58.49 10.54C58.67 8.41 57.19 6.58 55.17 6.58ZM52.61 9.74C52.86 8.39 53.93 7.48 55.16 7.48C56.45 7.48 57.34 8.48 57.48 9.76ZM61.47 3.08L60.42 3.08L60.42 14L61.47 14ZM68.21 6.58C67.05 6.58 65.98 6.99 64.86 7.78L64.69 6.72L63.94 6.72L63.94 14L64.97 14L64.97 8.65C65.97 7.98 67.03 7.50 67.94 7.50C69.05 7.50 69.68 8.12 69.68 9.30L69.68 14L70.73 14L70.73 9.25C70.73 7.50 69.78 6.58 68.21 6.58ZM76.16 6.58C74.12 6.58 72.53 8.19 72.53 10.33C72.53 12.50 74.07 14.14 76.17 14.14C77.84 14.14 79.10 13.06 79.34 11.76L78.34 11.76C78.13 12.66 77.28 13.23 76.17 13.23C74.73 13.23 73.67 12.15 73.56 10.63L79.38 10.63L79.48 10.54C79.66 8.41 78.18 6.58 76.16 6.58ZM73.60 9.74C73.85 8.39 74.91 7.48 76.15 7.48C77.43 7.48 78.33 8.48 78.47 9.76ZM81.09 8.54C81.09 11.48 86.04 10.02 86.06 12.05C86.07 12.88 85.26 13.29 84.08 13.29C82.87 13.29 81.89 12.75 81.69 11.69L80.70 11.69C80.92 13.34 82.40 14.14 84.06 14.14C85.78 14.14 87.08 13.40 87.08 12.05C87.08 9.14 82.11 10.57 82.11 8.54C82.11 7.94 82.71 7.43 83.99 7.43C85.39 7.43 85.88 8.13 85.97 8.99L86.94 8.99C86.86 7.70 85.95 6.58 84.01 6.58C82.08 6.58 81.09 7.43 81.09 8.54ZM88.68 8.54C88.68 11.48 93.63 10.02 93.65 12.05C93.66 12.88 92.85 13.29 91.67 13.29C90.45 13.29 89.47 12.75 89.28 11.69L88.28 11.69C88.51 13.34 89.99 14.14 91.64 14.14C93.37 14.14 94.67 13.40 94.67 12.05C94.67 9.14 89.70 10.57 89.70 8.54C89.70 7.94 90.30 7.43 91.57 7.43C92.97 7.43 93.46 8.13 93.56 8.99L94.53 8.99C94.44 7.70 93.53 6.58 91.60 6.58C89.67 6.58 88.68 7.43 88.68 8.54Z"></path></g><defs data-v-423bf9ae=""><linearGradient data-v-423bf9ae="" gradientTransform="rotate(25)" id="4ef63c91-8056-4b96-8031-c3acfd4ba8ec" x1="0%" y1="0%" x2="100%" y2="0%"><stop data-v-423bf9ae="" offset="0%" style="stop-color: rgb(42, 189, 199); stop-opacity: 1;"></stop><stop data-v-423bf9ae="" offset="100%" style="stop-color: rgb(24, 94, 99); stop-opacity: 1;"></stop></linearGradient></defs><g data-v-423bf9ae="" id="4dba1047-97e0-4d05-8163-7b3c5e340312" transform="matrix(1,0,0,1,-5,-5)" stroke="none" fill="url(#4ef63c91-8056-4b96-8031-c3acfd4ba8ec)"><path d="M95 52c0-12.871-5.692-24.431-14.682-32.318C72.431 10.692 60.871 5 48 5 24.29 5 5 24.29 5 48c0 12.868 5.69 24.426 14.677 32.313C27.564 89.306 39.126 95 52 95c.084 0 .166-.006.25-.006s.166.006.25.006C75.972 95 95 75.972 95 52.5c0-.084-.006-.166-.006-.25S95 52.084 95 52zM21.828 73.371a36.786 36.786 0 0 1-6.822-21.121c.135-20.511 16.732-37.109 37.244-37.244a36.784 36.784 0 0 1 21.121 6.822C80.224 28.473 84.5 37.758 84.5 48c0 20.126-16.374 36.5-36.5 36.5-10.242 0-19.527-4.276-26.172-11.129zM6 48C6 24.841 24.841 6 48 6c9.858 0 18.926 3.422 26.1 9.13A42.74 42.74 0 0 0 52 9C28.29 9 9 28.29 9 52a42.741 42.741 0 0 0 6.127 22.095C9.421 66.923 6 57.856 6 48zm46 41c-10.08 0-19.227-4.055-25.905-10.615C32.269 82.854 39.838 85.5 48 85.5c20.678 0 37.5-16.822 37.5-37.5 0-8.162-2.646-15.731-7.115-21.905C84.945 32.773 89 41.92 89 52c0 20.402-16.598 37-37 37z"></path></g><!----></svg>